<svg width="24" height="21" viewBox="0 0 24 21" fill="none" xmlns="http://www.w3.org/2000/svg">
<path d="M23.7203 9.60672L15.4623 0.314544C15.3796 0.216044 15.2764 0.136841 15.1598 0.0825001C15.0433 0.0281596 14.9162 0 14.7877 0C14.6591 0 14.532 0.0281596 14.4155 0.0825001C14.2989 0.136841 14.1957 0.216044 14.113 0.314544C13.9323 0.526159 13.8329 0.795348 13.8329 1.07367C13.8329 1.352 13.9323 1.62119 14.113 1.8328L20.8059 9.36254H0.953739C0.426783 9.36254 0 9.84254 0 10.4352C0 11.0279 0.427826 11.5079 0.953739 11.5079H20.8059L14.113 19.0387C13.9325 19.2503 13.8334 19.5192 13.8334 19.7973C13.8334 20.0754 13.9325 20.3444 14.113 20.5559C14.2988 20.7646 14.544 20.87 14.7871 20.87C15.0303 20.87 15.2755 20.7657 15.4623 20.5559L23.7203 11.2638C23.8998 11.0634 24 10.789 24 10.5052V10.3653C24 10.0815 23.8998 9.80811 23.7203 9.60672Z" fill="#003786"/>
</svg>
