<svg width="176" height="30" viewBox="0 0 176 30" fill="none" xmlns="http://www.w3.org/2000/svg">
<g clip-path="url(#clip0_1_502)">
<path d="M25.5139 15.2932L22.6067 15.3442L19.3227 10.098L16.9197 10.1219L16.9148 15.3355L14.3875 15.3323V1.34041L17.3056 1.3453L20.2379 1.35561C21.1894 1.35887 22.1225 1.68618 22.9519 2.10631C24.2519 2.95688 24.9456 4.34646 24.9006 5.90919C24.8484 7.72921 23.7704 9.2876 21.9173 9.79186L25.5139 15.2932ZM20.3806 7.94362C21.3354 7.93113 22.0818 7.22223 22.2832 6.41943C22.6305 5.0369 21.7507 3.62507 20.2889 3.60825L16.9175 3.56916L16.9192 7.98976L20.3806 7.94416V7.94362Z" fill="#003786"/>
<path d="M58.7232 7.9566C58.6315 10.2282 59.7681 12.1536 61.7493 12.9129C63.7615 13.6843 66.0054 13.1273 67.3641 11.2932L69.2254 12.838C66.6584 16.1801 61.8237 16.6653 58.5745 13.8558C55.1407 10.8867 55.2639 5.2898 58.7997 2.39177C61.0041 0.585324 64.0595 0.325864 66.5987 1.47606C67.6686 1.96025 68.397 2.72071 69.233 3.59517L67.338 5.20187C66.4066 3.93062 65.0545 3.2836 63.5161 3.2722C60.8559 3.25266 58.8328 5.24909 58.7232 7.95714V7.9566Z" fill="#003786"/>
<path d="M86.7948 17.1329C85.9866 19.1641 84.0428 20.0385 82.1229 19.1613L82.7086 17.2887C83.3524 17.527 84.2903 17.4939 84.5867 16.748L85.1458 15.3384L81.4129 6.20842C82.3851 6.32947 83.0223 6.3197 83.8827 6.21982L86.3595 12.804L88.7321 6.25619L91.1204 6.26216L86.7943 17.1334L86.7948 17.1329Z" fill="#003786"/>
<path d="M48.0392 12.9599C49.2605 13.9734 51.0246 13.7584 51.987 12.4817L53.5014 13.6721C52.5846 15.0215 50.9492 15.6099 49.3137 15.5149C46.8477 15.3722 45.1211 13.4827 44.9984 11.1025C44.8502 8.21529 46.9009 5.91869 49.8397 6.06362C52.7231 6.20583 54.2065 8.58928 53.8624 11.4504L52.7187 11.4135L47.2847 11.4406C47.3406 12.0203 47.5767 12.5767 48.0387 12.9599H48.0392ZM51.7075 9.83176C51.5685 8.56214 50.7809 8.08393 49.8239 7.92869C48.6091 7.83424 47.4991 8.48235 47.3091 9.83882L51.7075 9.83176Z" fill="#003786"/>
<path d="M31.8696 15.3587C30.2814 15.7549 28.7355 15.3809 27.5451 14.3653C26.4193 13.4051 25.8168 11.9167 25.9672 10.3372C26.2103 7.7746 28.2725 5.96707 30.854 6.036C33.6837 6.11199 35.7675 8.45745 35.4347 11.2784C35.2008 13.264 33.8785 14.8582 31.8702 15.3592L31.8696 15.3587ZM33.2212 10.7503C33.2369 9.14735 32.1258 8.03678 30.6581 8.06772C29.249 8.09757 28.235 9.2152 28.1965 10.6824C28.1563 12.2066 29.1594 13.4371 30.6461 13.4599C32.1019 13.4827 33.2055 12.357 33.2212 10.7497V10.7503Z" fill="#003786"/>
<path d="M42.5249 15.0101C40.4383 16.0371 37.9392 15.6066 36.3597 13.7893L37.7612 12.4909C38.6232 13.4441 39.7989 13.9326 41.0332 13.5624C41.3334 13.4723 41.6379 13.1146 41.6884 12.8427C41.7389 12.5707 41.461 12.0219 41.1592 11.9318L38.8294 11.2365C37.7824 10.9238 37.0051 10.2383 36.858 9.23464C36.7033 8.17943 37.1446 7.09654 38.1765 6.55645C39.9612 5.62228 42.2496 5.96425 43.7869 7.36631L42.4022 8.74449C41.5809 7.99053 40.6012 7.60406 39.5617 7.98022C39.2876 8.07955 38.9961 8.39438 38.9603 8.64136C38.9212 8.91276 39.2224 9.34754 39.5226 9.43439L41.9869 10.1449C43.5356 10.5916 44.2857 12.0849 43.7136 13.5792C43.4997 14.1383 43.1545 14.7001 42.5249 15.0101Z" fill="#003786"/>
<path d="M80.4402 13.3554L80.609 15.2335C79.86 15.4371 79.3411 15.4979 78.636 15.4908C77.2703 15.4773 76.0788 14.5225 76.069 13.0927L76.0359 8.12716L74.6024 8.05551L74.591 6.21866L76.0327 6.2306L76.0006 3.52798L78.3038 3.49813L78.3092 6.24037L80.494 6.21323L80.5162 8.07993L78.3 8.09242L78.3092 12.2818C78.3097 12.5548 78.4742 13.1248 78.7071 13.2697C79.1695 13.5574 79.7036 13.5319 80.4402 13.356V13.3554Z" fill="#003786"/>
<path d="M95.6317 8.09808C95.5872 9.78023 96.1522 11.369 97.4197 12.3233C99.4959 13.886 102.371 13.5728 103.911 11.3679L105.78 12.8541C103.556 15.8515 99.4481 16.4155 96.4551 14.5661C94.6204 13.4328 93.2992 11.4559 93.0886 9.10606C92.7228 5.03395 95.5247 1.41454 99.6104 1.10134C101.997 0.917872 104.162 1.72882 105.672 3.68888L103.976 5.32815C102.916 3.94509 101.462 3.37786 99.7282 3.51464C97.4132 3.69648 95.6957 5.65926 95.6317 8.09916V8.09808Z" fill="#CA0A29"/>
<path d="M139 11.4464C139.131 12.5537 140.029 13.3353 140.942 13.5172C142.067 13.7414 143.15 13.4287 143.806 12.4381L145.367 13.6968C143.512 16.0168 139.844 16.2258 137.845 13.8792C136.196 11.943 136.413 8.83278 138.3 7.17506C140.025 5.65955 142.666 5.64924 144.305 7.13598C145.531 8.2471 145.835 9.86248 145.658 11.4241L142.38 11.4388L140.562 11.4008L139 11.4464H139ZM143.535 9.87931C143.42 8.63629 142.475 7.87962 141.26 7.89373C140.221 7.90567 139.207 8.72205 139.117 9.87876H143.535V9.87931Z" fill="#CA0A29"/>
<path d="M115.655 10.551C115.773 13.1207 113.986 15.1915 111.618 15.4922C109.132 15.8075 106.876 14.2323 106.37 11.7664C105.786 8.9199 107.65 6.31662 110.54 6.06313C113.242 5.82592 115.526 7.77241 115.655 10.551ZM113.424 11.02C113.484 10.0929 113.235 9.30258 112.643 8.75435C112.126 8.27668 111.338 7.9396 110.563 8.09538C109.153 8.37927 108.402 9.69557 108.523 11.0911C108.639 12.4416 109.684 13.4675 110.979 13.4686C112.269 13.4702 113.332 12.446 113.425 11.02H113.424Z" fill="#CA0A29"/>
<path d="M119.223 9.74794L119.168 15.3312L116.891 15.3361L116.894 6.27942L119.1 6.18009L119.181 7.3976C120.194 6.01671 122.09 5.6134 123.635 6.48515C124.607 7.03338 125.224 8.23623 125.227 9.37286L125.245 15.309L122.961 15.3453L122.938 9.55579C122.935 8.61728 122.09 8.07665 121.265 8.04191C120.3 8.0012 119.234 8.59828 119.223 9.7474V9.74794Z" fill="#CA0A29"/>
<path d="M129.335 9.63951L129.265 15.3379L126.987 15.3107L126.989 6.33057L129.239 6.25078L129.269 7.43681C129.943 6.4717 130.855 6.02335 132.03 6.03475C133.699 6.05049 135.187 7.20395 135.235 8.97457L135.351 13.2068L135.234 15.3346L133.047 15.3319L133.016 9.6585C133.01 8.682 132.098 8.05832 131.286 8.04583C130.445 8.03281 129.349 8.55933 129.335 9.63896V9.63951Z" fill="#CA0A29"/>
<path d="M149.448 11.7712C149.804 12.7857 150.619 13.3741 151.492 13.4631C152.508 13.5668 153.372 13.1417 153.909 12.2222L155.493 13.5738C154.537 14.927 153.136 15.5583 151.526 15.51C148.934 15.4324 146.94 13.2921 147.022 10.6931C147.087 8.65004 148.303 6.93152 150.095 6.33009C152.088 5.66082 154.151 6.16888 155.48 7.94819L153.859 9.23898C153.378 8.50673 152.602 8.0345 151.755 8.06435C150.852 8.09637 150.054 8.57513 149.617 9.43167C149.267 10.1183 149.177 10.996 149.448 11.7706L149.448 11.7712Z" fill="#CA0A29"/>
<path d="M161.16 13.4642L162.293 13.4409L162.395 15.1632C161.912 15.3825 161.382 15.4634 160.828 15.4992C159.344 15.5947 157.965 14.6085 157.952 13.0333L157.909 8.1122L156.441 8.03675V6.27698L157.897 6.25418L157.919 3.50597L160.168 3.51248L160.167 6.19067L161.444 6.25418C161.644 6.26395 162.223 6.14128 162.305 6.3318L162.337 8.0894L160.168 8.06497V12.4112C160.168 12.948 160.535 13.4773 161.159 13.4642H161.16Z" fill="#CA0A29"/>
<path d="M73.1493 15.2707L70.825 15.3342L70.8223 6.22918L73.139 6.19444L73.1493 15.2707Z" fill="#003786"/>
<path d="M25.6735 25.558L14.7827 25.5645C14.6095 25.5754 14.3148 25.4538 14.2839 25.3268C14.248 25.1797 14.4543 24.9647 14.6655 24.9077L25.7837 24.905L26.0068 25.2242C26.0719 25.317 25.7821 25.5298 25.6735 25.5586V25.558Z" fill="#CA0A29"/>
<path d="M162.086 25.5564L152.862 25.5645C152.757 25.5233 152.549 25.3946 152.508 25.311C152.456 25.2063 152.63 25.0396 152.781 24.9121L162.153 24.9017L162.471 25.2231C162.545 25.298 162.228 25.5314 162.087 25.5564H162.086Z" fill="#CA0A29"/>
<path d="M60.8569 23.4816C61.9181 23.2498 62.9109 24.0537 63.1112 24.9836C63.3343 26.0198 62.6368 27.0701 61.568 27.2487C60.6165 27.4077 59.5857 26.8133 59.336 25.814C59.0961 24.8522 59.6861 23.7373 60.8569 23.4816ZM60.7316 24.1791C59.9532 24.4874 59.8359 25.325 60.0748 25.9058C60.363 26.6055 61.0942 26.7965 61.6956 26.5794C62.4153 26.3199 62.6254 25.5367 62.4018 24.862C62.1928 24.2312 61.4595 23.8903 60.7316 24.1791Z" fill="#003786"/>
<path d="M67.16 25.2573C67.3152 25.5336 67.6116 26.0688 67.5432 26.3793C67.4802 26.6637 67.0286 27.1658 66.7328 27.1712L64.7489 27.2076L64.77 23.5252L66.571 23.5524C66.824 23.5562 67.2105 23.9274 67.3071 24.1424C67.4308 24.4187 67.281 24.9191 67.1605 25.2573H67.16ZM66.4956 24.9924C66.6438 24.987 66.8441 24.5956 66.7838 24.4686C66.7236 24.3416 66.4598 24.1109 66.3197 24.1093L65.4133 24.099L65.3932 25.0337L66.4951 24.9924H66.4956ZM66.7469 26.5323C66.9988 26.5112 66.9293 25.6269 66.6872 25.6172L65.3986 25.5645L65.4046 26.6442L66.7469 26.5329V26.5323Z" fill="#003786"/>
<path d="M36.4797 26.8628C35.7925 27.3887 34.9571 27.3849 34.2699 27.0033C33.6153 26.6397 33.2516 25.8678 33.3922 25.0113C33.5083 24.3051 34.0805 23.6998 34.9327 23.4941C35.7773 23.2906 36.6154 23.8241 36.9931 24.5412C37.3937 25.3022 37.2303 26.2879 36.4797 26.8622V26.8628ZM36.046 26.4247C36.4064 26.1256 36.5763 25.6501 36.5459 25.2349C36.5204 24.887 36.2658 24.4256 35.9162 24.2345C35.286 23.8904 34.6026 24.0793 34.2303 24.609C33.9013 25.0769 33.8818 25.8374 34.3714 26.3156C34.7356 26.6712 35.476 26.8975 36.046 26.4242V26.4247Z" fill="#003786"/>
<path d="M91.9091 23.601C92.9996 23.2232 94.0489 23.8474 94.3615 24.8885C94.6367 25.8058 94.1357 26.8757 93.0979 27.1851C92.1849 27.4576 91.07 27.0358 90.7296 26.0235C90.4273 25.1241 90.8235 23.9771 91.9091 23.601ZM93.7585 25.2277C93.6912 24.3728 92.9942 23.9934 92.282 24.1253C91.648 24.2426 91.2393 24.8179 91.2974 25.5529C91.356 26.2884 91.977 26.7112 92.662 26.6684C93.347 26.6255 93.8225 26.0447 93.7585 25.2277Z" fill="#003786"/>
<path d="M103.027 25.6963L102.455 25.7517C102.355 25.7615 102.346 25.2843 102.432 25.2339L103.997 25.1682C104.02 25.5726 104.022 26.1099 103.837 26.4253C103.243 27.4414 101.879 27.5223 101.073 26.84C100.217 26.1154 100.106 24.8577 100.939 24.0375C101.668 23.3199 102.969 23.2108 103.732 24.1575L103.243 24.5011C102.71 23.9376 101.889 23.9914 101.383 24.4539C100.876 24.9163 100.939 25.8266 101.375 26.2929C101.889 26.8438 103.009 26.8123 103.283 26.206L103.433 25.8744C103.469 25.7951 103.132 25.686 103.027 25.6963Z" fill="#003786"/>
<path d="M111.552 27.0819L110.957 26.1607C110.848 25.993 110.618 25.8481 110.47 25.8758C110.294 25.9083 110.207 26.2688 110.214 26.4604L110.235 27.0916C110.241 27.2458 109.707 27.2219 109.6 27.1123L109.588 23.5466L111.185 23.5607C111.663 23.565 112.156 24.084 112.218 24.4466C112.319 25.0404 112.06 25.5077 111.469 25.8014L112.29 27.1704C112.142 27.2045 111.623 27.1931 111.552 27.0824L111.552 27.0819ZM111.323 25.2347C111.49 25.2179 111.634 24.7261 111.586 24.5779C111.539 24.4297 111.31 24.1692 111.15 24.1556L110.233 24.0791L110.241 25.3444L111.323 25.2342V25.2347Z" fill="#003786"/>
<path d="M127.214 25.726L126.645 25.7184C126.526 25.7167 126.572 25.2212 126.691 25.2179L128.157 25.1788C128.219 25.7194 128.249 26.2259 127.92 26.6699C127.378 27.4049 125.932 27.5042 125.176 26.7453C124.73 26.297 124.627 25.6646 124.71 25.0116C124.805 24.2658 125.452 23.7002 126.02 23.5629C126.84 23.3648 127.515 23.6014 128.035 24.1746L127.519 24.5041C126.954 23.97 126.177 23.9798 125.669 24.4542C125.167 24.9237 125.185 25.746 125.588 26.2357C126.065 26.8159 127.068 26.8208 127.478 26.2264C127.521 26.1645 127.602 25.9523 127.624 25.8861C127.654 25.7971 127.313 25.727 127.214 25.726Z" fill="#003786"/>
<path d="M140.107 27.1242L139.467 27.179L139.456 25.6738L137.856 25.6662L137.836 27.1741L137.172 27.1812L137.185 23.5677L137.852 23.5449L137.834 25.0577L139.464 25.0588L139.457 23.5563L140.098 23.571L140.107 27.1242Z" fill="#003786"/>
<path d="M120.826 27.135C120.004 26.8213 119.624 26.0125 119.696 25.2629C119.772 24.4661 120.278 23.7056 121.119 23.5482C121.996 23.3843 122.757 23.6785 123.197 24.3684C123.609 25.0138 123.572 25.9208 123.059 26.589C122.618 27.1638 121.687 27.4629 120.826 27.1345V27.135ZM121.405 26.6633C122.121 26.78 122.68 26.2573 122.793 25.7031C122.916 25.099 122.692 24.4579 122.107 24.2066C121.365 23.888 120.572 24.3027 120.382 24.9926C120.18 25.7265 120.527 26.5206 121.405 26.6639V26.6633Z" fill="#003786"/>
<path d="M88.7087 27.2054L87.9347 26.0031C87.8663 25.8972 87.4038 25.7745 87.3865 25.8994L87.3078 26.4682L87.2747 27.0876C87.2665 27.2434 86.7737 27.201 86.6369 27.1223L86.6309 23.5485L88.2181 23.5474C88.7592 23.5474 89.2244 24.0099 89.2971 24.4278C89.4052 25.0472 89.1756 25.5362 88.5264 25.8017L89.3748 27.1457L88.7093 27.2059L88.7087 27.2054ZM88.4086 25.2534C88.5817 25.241 88.7723 24.7535 88.7201 24.5896C88.6756 24.449 88.4482 24.1689 88.2962 24.1608L87.3045 24.1087L87.2855 25.3327L88.4091 25.2529L88.4086 25.2534Z" fill="#003786"/>
<path d="M98.838 27.1209C98.6698 27.3956 98.0949 27.0449 97.9576 26.843L96.4899 24.6799L96.454 27.186L95.8271 27.1616L95.8401 23.5688C96.3069 23.425 96.5789 23.717 96.7781 24.0123L98.2208 26.1542L98.2442 24.002C98.2458 23.8701 98.2849 23.514 98.3723 23.5373L98.8755 23.6736L98.8375 27.1209H98.838Z" fill="#003786"/>
<path d="M72.207 4.88709C71.377 5.03148 70.7664 4.40399 70.6844 3.71626C70.6073 3.07087 71.0638 2.37499 71.8037 2.22898C72.5175 2.08839 73.1297 2.62143 73.2741 3.27008C73.4229 3.93935 73.063 4.73782 72.2075 4.88709H72.207Z" fill="#003786"/>
<path d="M147.096 26.4769L146.808 25.9645C146.736 25.8364 146.338 25.8765 146.172 25.9091L146.152 27.1858L145.542 27.1809L145.549 23.5495C146.183 23.53 146.795 23.5083 147.364 23.6157C147.893 23.7156 148.158 24.2644 148.152 24.6883C148.145 25.1812 147.893 25.5221 147.388 25.8423L148.262 27.1597C147.631 27.3768 147.381 26.9849 147.096 26.4774V26.4769ZM147.256 25.2442C147.422 25.23 147.567 24.7632 147.522 24.5993C147.482 24.4587 147.259 24.177 147.119 24.1683L146.151 24.107L146.172 25.3348L147.256 25.2442Z" fill="#003786"/>
<path d="M46.2555 26.3807L44.5913 26.3634L44.3166 27.0658C44.2564 27.2194 43.782 27.2308 43.6039 27.1705L44.8893 23.9327C44.9468 23.7878 45.1384 23.5582 45.2682 23.5033C45.424 23.4377 45.8023 23.6412 45.8642 23.7981L47.1864 27.157C47.0225 27.2009 46.5975 27.2389 46.5041 27.1282C46.4108 27.0175 46.3679 26.8231 46.2544 26.3802L46.2555 26.3807ZM45.9906 25.8092L45.4055 24.2443L44.8388 25.8217L45.9901 25.8092H45.9906Z" fill="#003786"/>
<path d="M107.693 25.5355L106.295 25.5936L106.234 26.6211L107.961 26.6184L107.963 27.2046L105.598 27.2008L105.602 23.5461L107.928 23.5277L107.992 24.147L106.254 24.1172L106.245 25.0899L107.669 25.0671L107.693 25.5355Z" fill="#003786"/>
<path d="M131.7 25.5567L130.296 25.6359L130.314 26.6048L131.839 26.6358C131.951 26.638 132.043 27.0505 132.026 27.2101L129.625 27.1932L129.633 23.5456L131.738 23.5293C131.865 23.5337 131.989 23.9994 131.931 24.1221L130.298 24.1449L130.294 25.0475L131.602 25.0617C131.723 25.0627 131.827 25.5502 131.7 25.5572L131.7 25.5567Z" fill="#003786"/>
<path d="M39.375 25.6425C39.4417 26.1283 39.8456 26.5137 40.2244 26.6233C41.3106 26.9381 41.7665 25.6794 42.1047 26.588C41.443 27.4218 40.0464 27.5026 39.2783 26.7601C38.5173 26.024 38.5331 24.7316 39.3001 23.9782C40.079 23.2129 41.3508 23.2221 42.1232 24.166L41.6108 24.5107C41.1564 24.0434 40.6028 23.9245 40.0442 24.1943C39.6035 24.407 39.2767 24.9298 39.3744 25.6419L39.375 25.6425Z" fill="#003786"/>
<path d="M143.858 25.5568L142.385 25.5752L142.296 26.618L144.048 26.6082L144.043 27.2074L141.69 27.1944V23.5446L144.004 23.5375L144.056 24.1422L142.326 24.1167L142.309 25.0493L143.659 25.09C143.739 25.0921 143.812 25.3093 143.858 25.5568H143.858Z" fill="#003786"/>
<path d="M71.326 26.9112C70.5721 27.5267 69.5782 27.3476 68.999 26.5871L69.4273 26.1865C69.7551 26.452 70.0081 26.6278 70.2426 26.6897C70.4602 26.7473 70.9683 26.5426 71.0144 26.3027C71.1941 25.3696 68.9143 25.7789 69.1108 24.3578C69.1781 23.8715 69.7068 23.5051 70.1177 23.447C70.6334 23.3737 71.2381 23.5892 71.4753 24.1185C71.0085 24.6558 70.8462 23.9621 70.0336 24.0533C69.8632 24.0723 69.6743 24.6108 69.8127 24.7101C70.4597 25.1753 71.3423 25.0988 71.6175 25.8082C71.7223 26.0785 71.6001 26.6876 71.326 26.9112Z" fill="#003786"/>
<path d="M80.7545 27.0064C80.0624 27.5042 78.9632 27.2941 78.5485 26.5966C78.5442 26.431 78.9225 26.2112 79.0561 26.3165C79.2542 26.4723 79.6586 26.6682 79.8941 26.7024C80.1064 26.7328 80.5792 26.4413 80.5651 26.2226C80.5178 25.5012 79.0354 25.7531 78.713 24.865C78.5936 24.5366 78.7217 24.028 79.0001 23.8033C79.6548 23.2741 80.6372 23.4315 81.0889 24.1008C80.7431 24.7326 79.6564 23.5954 79.3443 24.3136C79.0322 25.0317 80.2345 25.0192 80.8544 25.454C81.4281 25.8562 81.2555 26.6471 80.7545 27.0075V27.0064Z" fill="#003786"/>
<path d="M117.678 27.1336L117.011 27.1678L117.009 24.133L115.975 24.1151L116.047 23.5392L118.703 23.549L118.736 24.1211L117.669 24.1395L117.678 27.1336Z" fill="#003786"/>
<path d="M51.0441 26.6053L51.1782 27.2051L48.7649 27.1916L48.7731 23.5515L49.4315 23.5532L49.4071 26.6271L51.0441 26.6053Z" fill="#003786"/>
<path d="M55.2938 26.6565C55.2731 26.5832 55.5755 26.282 55.6406 26.3205L56.0314 26.5523C56.1384 26.6158 56.3837 26.6945 56.5026 26.7113C56.6448 26.7314 56.9667 26.4676 56.9683 26.3048L56.9922 23.5869L57.598 23.5375C57.6077 23.537 57.7841 25.4401 57.5307 26.5881C57.4199 27.0902 56.7881 27.2682 56.4092 27.2796C56.019 27.2916 55.3855 26.9778 55.2938 26.656V26.6565Z" fill="#003786"/>
<path d="M134.856 26.9542C134.856 27.0638 134.545 27.2869 134.454 27.2462C134.333 27.1925 134.211 26.939 134.213 26.7772L134.228 24.1566L133.207 24.1045L133.221 23.5448L135.9 23.5334V24.1349L134.86 24.1463L134.856 26.9542H134.856Z" fill="#003786"/>
<path d="M84.128 27.1336L83.5114 27.1944L83.5098 24.1514L82.466 24.1237L82.4649 23.5326L85.1664 23.538L85.161 24.1118L84.1335 24.1351L84.128 27.1336Z" fill="#003786"/>
<path d="M32.0048 26.6284C32.1361 26.6767 32.0525 27.2 31.9174 27.2027L29.7065 27.2049L29.7093 23.5567L30.3443 23.554L30.3432 26.6056L32.0042 26.6284H32.0048Z" fill="#003786"/>
<path d="M73.5064 26.5038C73.6232 26.4463 73.9722 26.564 74.0151 26.6883C74.0666 26.8371 73.9597 27.2008 73.8158 27.2637C73.6715 27.3267 73.3566 27.1872 73.2519 27.0537C73.1547 26.9299 73.336 26.5885 73.507 26.5038H73.5064Z" fill="#003786"/>
<path d="M149.776 26.5478C149.987 26.487 150.293 26.5603 150.358 26.6683C150.437 26.7986 150.295 27.2263 150.142 27.229C150.015 27.2312 149.835 27.185 149.663 27.1232C149.52 27.0721 149.615 26.5939 149.776 26.5472V26.5478Z" fill="#003786"/>
</g>
<defs>
<clipPath id="clip0_1_502">
<rect width="176" height="29.0121" fill="white"/>
</clipPath>
</defs>
</svg>
