<svg width="146" height="24" viewBox="0 0 146 24" fill="none" xmlns="http://www.w3.org/2000/svg">
<path d="M21.104 12.6512L18.699 12.6934L15.9824 8.35352L13.9945 8.37328L13.9905 12.6862L11.8998 12.6835V1.10889L14.3138 1.11293L16.7395 1.12146C17.5266 1.12415 18.2985 1.39492 18.9846 1.74247C20.06 2.44609 20.6339 3.59561 20.5966 4.88836C20.5535 6.39396 19.6617 7.68312 18.1288 8.10027L21.104 12.6512ZM16.8576 6.57132C17.6474 6.56099 18.2648 5.97456 18.4314 5.31045C18.7188 4.16677 17.9909 2.99885 16.7817 2.98493L13.9927 2.9526L13.9941 6.60949L16.8576 6.57177V6.57132Z" fill="#003786"/>
<path d="M48.5761 6.58222C48.5002 8.4614 49.4404 10.0541 51.0794 10.6823C52.7439 11.3204 54.6002 10.8597 55.7241 9.3424L57.2639 10.6203C55.1404 13.385 51.1409 13.7864 48.453 11.4623C45.6125 9.00608 45.7144 4.37614 48.6394 1.97877C50.4629 0.484407 52.9905 0.269771 55.091 1.22126C55.976 1.6218 56.5786 2.25089 57.2702 2.97427L55.7026 4.3034C54.9321 3.25177 53.8135 2.71653 52.541 2.7071C50.3403 2.69093 48.6668 4.34246 48.5761 6.58267V6.58222Z" fill="#003786"/>
<path d="M71.798 14.1731C71.1294 15.8534 69.5214 16.5768 67.9332 15.8512L68.4177 14.302C68.9503 14.4991 69.7262 14.4717 69.9714 13.8548L70.4339 12.6887L67.3459 5.13599C68.1501 5.23612 68.6773 5.22804 69.389 5.14542L71.4379 10.5921L73.4006 5.1755L75.3763 5.18044L71.7976 14.1736L71.798 14.1731Z" fill="#003786"/>
<path d="M39.7378 10.721C40.7481 11.5594 42.2075 11.3816 43.0036 10.3254L44.2564 11.3102C43.498 12.4264 42.1451 12.9132 40.7921 12.8346C38.7522 12.7165 37.3238 11.1534 37.2224 9.18445C37.0998 6.79607 38.7962 4.89623 41.2273 5.01612C43.6125 5.13377 44.8397 7.10545 44.555 9.47228L43.6089 9.44175L39.1137 9.4642C39.1599 9.94376 39.3553 10.404 39.7374 10.721H39.7378ZM42.7724 8.13328C42.6574 7.083 42.0059 6.68741 41.2142 6.55898C40.2093 6.48085 39.291 7.01699 39.1339 8.13912L42.7724 8.13328Z" fill="#003786"/>
<path d="M26.3617 12.7053C25.0478 13.0331 23.769 12.7238 22.7843 11.8836C21.853 11.0893 21.3546 9.85805 21.479 8.55138C21.6801 6.43152 23.386 4.93625 25.5216 4.99328C27.8624 5.05614 29.5862 6.99639 29.3109 9.33C29.1174 10.9725 28.0236 12.2913 26.3622 12.7058L26.3617 12.7053ZM27.4798 8.89309C27.4928 7.56711 26.5736 6.6484 25.3595 6.67399C24.1938 6.69869 23.355 7.62324 23.3231 8.83696C23.2899 10.0978 24.1197 11.1158 25.3496 11.1346C26.5539 11.1535 27.4668 10.2222 27.4798 8.89264V8.89309Z" fill="#003786"/>
<path d="M35.1761 12.4171C33.4501 13.2667 31.3827 12.9106 30.0761 11.4073L31.2355 10.3332C31.9485 11.1217 32.9211 11.5258 33.9422 11.2196C34.1905 11.145 34.4424 10.8491 34.4842 10.6242C34.5259 10.3992 34.296 9.94522 34.0464 9.87068L32.1191 9.29547C31.253 9.03683 30.61 8.46971 30.4883 7.63946C30.3603 6.76654 30.7254 5.87073 31.579 5.42395C33.0554 4.65117 34.9485 4.93406 36.2201 6.0939L35.0747 7.23398C34.3953 6.61028 33.5848 6.29057 32.7249 6.60175C32.4981 6.68392 32.257 6.94436 32.2274 7.14867C32.195 7.37318 32.4442 7.73285 32.6926 7.8047L34.7311 8.39248C36.0122 8.76203 36.6328 9.99731 36.1595 11.2335C35.9826 11.696 35.697 12.1607 35.1761 12.4171Z" fill="#003786"/>
<path d="M66.5412 11.0482L66.6809 12.6018C66.0612 12.7702 65.632 12.8205 65.0487 12.8146C63.9189 12.8034 62.9333 12.0136 62.9252 10.8308L62.8978 6.72312L61.7119 6.66384L61.7025 5.14433L62.8951 5.15421L62.8686 2.9185L64.7739 2.8938L64.7784 5.16229L66.5857 5.13984L66.6041 6.68405L64.7707 6.69438L64.7784 10.16C64.7788 10.3858 64.9149 10.8573 65.1075 10.9772C65.4901 11.2152 65.9319 11.1941 66.5412 11.0486V11.0482Z" fill="#003786"/>
<path d="M79.1082 6.69926C79.0714 8.09081 79.5388 9.40511 80.5873 10.1945C82.3049 11.4873 84.6834 11.2282 85.9568 9.40421L87.5037 10.6337C85.6631 13.1132 82.2653 13.5797 79.7894 12.0499C78.2717 11.1123 77.1787 9.47696 77.0045 7.53311C76.7019 4.1645 79.0198 1.17037 82.3996 0.911283C84.374 0.759511 86.1647 1.43036 87.4144 3.0518L86.0107 4.40787C85.1337 3.26374 83.9317 2.79451 82.497 2.90766C80.5819 3.05809 79.1612 4.68178 79.1082 6.70016V6.69926Z" fill="#CA0A29"/>
<path d="M114.984 9.46901C115.093 10.385 115.836 11.0316 116.591 11.1821C117.522 11.3675 118.418 11.1089 118.96 10.2894L120.251 11.3307C118.717 13.2498 115.682 13.4227 114.029 11.4816C112.665 9.87988 112.844 7.30694 114.405 5.93561C115.832 4.68192 118.017 4.67339 119.373 5.90328C120.387 6.82244 120.638 8.15875 120.492 9.4506L117.78 9.46273L116.276 9.4313L114.984 9.46901H114.984ZM118.736 8.17267C118.64 7.14439 117.859 6.51845 116.854 6.53012C115.994 6.54 115.156 7.21534 115.081 8.17222H118.736V8.17267Z" fill="#CA0A29"/>
<path d="M95.672 8.7285C95.7703 10.8542 94.2917 12.5672 92.333 12.816C90.276 13.0769 88.4099 11.7738 87.9914 9.73387C87.5082 7.37916 89.0506 5.22562 91.4408 5.01593C93.6765 4.8197 95.5656 6.42992 95.672 8.7285ZM93.8269 9.11646C93.8768 8.34952 93.6707 7.69573 93.1803 7.24221C92.7529 6.84707 92.1009 6.56822 91.4601 6.69709C90.2935 6.93193 89.6725 8.02083 89.7722 9.17528C89.8683 10.2925 90.7327 11.1411 91.8045 11.142C92.871 11.1434 93.7506 10.2961 93.8274 9.11646H93.8269Z" fill="#CA0A29"/>
<path d="M98.6239 8.06398L98.5781 12.6827L96.6944 12.6867L96.6976 5.19469L98.5224 5.11251L98.5893 6.11969C99.4268 4.97736 100.996 4.64373 102.274 5.36487C103.078 5.81839 103.588 6.81344 103.591 7.7537L103.605 12.6643L101.716 12.6944L101.698 7.90502C101.694 7.12865 100.996 6.68142 100.313 6.65268C99.5152 6.61901 98.6333 7.11294 98.6239 8.06353V8.06398Z" fill="#CA0A29"/>
<path d="M106.989 7.97436L106.931 12.6883L105.047 12.6658L105.049 5.23708L106.909 5.17108L106.935 6.1522C107.492 5.35383 108.246 4.98293 109.219 4.99236C110.599 5.00538 111.83 5.95957 111.87 7.4243L111.965 10.9254L111.869 12.6856L110.06 12.6833L110.034 7.99008C110.029 7.18228 109.275 6.66634 108.603 6.65601C107.907 6.64524 107.001 7.0808 106.989 7.97391V7.97436Z" fill="#CA0A29"/>
<path d="M123.627 9.7378C123.922 10.577 124.596 11.0638 125.318 11.1374C126.159 11.2232 126.874 10.8716 127.317 10.1109L128.628 11.229C127.837 12.3485 126.678 12.8707 125.347 12.8307C123.202 12.7665 121.552 10.996 121.62 8.84603C121.674 7.15589 122.68 5.73426 124.162 5.23674C125.811 4.68308 127.518 5.10337 128.617 6.57529L127.276 7.64308C126.879 7.03734 126.236 6.64669 125.536 6.67138C124.789 6.69788 124.129 7.09392 123.767 7.80249C123.478 8.37051 123.403 9.09659 123.628 9.73735L123.627 9.7378Z" fill="#CA0A29"/>
<path d="M133.316 11.1383L134.253 11.119L134.337 12.5437C133.938 12.7251 133.5 12.792 133.041 12.8217C131.814 12.9007 130.673 12.0848 130.662 10.7817L130.627 6.71085L129.412 6.64843V5.19268L130.617 5.17382L130.635 2.90039L132.496 2.90578L132.494 5.12129L133.551 5.17382C133.716 5.18191 134.196 5.08043 134.263 5.23803L134.289 6.69199L132.495 6.67178V10.2672C132.495 10.7112 132.799 11.149 133.315 11.1383H133.316Z" fill="#CA0A29"/>
<path d="M60.5099 12.6327L58.5871 12.6853L58.5849 5.15325L60.5014 5.12451L60.5099 12.6327Z" fill="#003786"/>
<path d="M21.236 21.1427L12.2267 21.1481C12.0835 21.1571 11.8397 21.0565 11.8141 20.9514C11.7844 20.8297 11.9551 20.6519 12.1297 20.6048L21.3272 20.6025L21.5117 20.8666C21.5656 20.9434 21.3259 21.1194 21.236 21.1432V21.1427Z" fill="#CA0A29"/>
<path d="M134.082 21.1414L126.451 21.1481C126.364 21.114 126.192 21.0076 126.158 20.9384C126.116 20.8518 126.26 20.7139 126.384 20.6084L134.137 20.5999L134.4 20.8657C134.461 20.9276 134.199 21.1207 134.082 21.1414H134.082Z" fill="#CA0A29"/>
<path d="M50.3412 19.4249C51.219 19.2332 52.0403 19.8982 52.206 20.6674C52.3906 21.5246 51.8136 22.3935 50.9294 22.5412C50.1423 22.6727 49.2896 22.1811 49.083 21.3544C48.8845 20.5587 49.3726 19.6364 50.3412 19.4249ZM50.2375 20.0019C49.5936 20.257 49.4966 20.9498 49.6941 21.4303C49.9326 22.0091 50.5374 22.1671 51.0349 21.9875C51.6303 21.7729 51.8041 21.1249 51.6191 20.5668C51.4462 20.045 50.8396 19.763 50.2375 20.0019Z" fill="#003786"/>
<path d="M55.5553 20.894C55.6837 21.1226 55.9289 21.5653 55.8723 21.8222C55.8202 22.0575 55.4467 22.4728 55.2019 22.4773L53.5607 22.5074L53.5782 19.4612L55.0681 19.4836C55.2774 19.4868 55.5971 19.7939 55.677 19.9717C55.7794 20.2003 55.6554 20.6143 55.5558 20.894H55.5553ZM55.0057 20.6749C55.1283 20.6704 55.294 20.3467 55.2441 20.2416C55.1943 20.1365 54.9761 19.9457 54.8602 19.9443L54.1103 19.9358L54.0937 20.709L55.0053 20.6749H55.0057ZM55.2136 21.9488C55.422 21.9313 55.3645 21.1998 55.1642 21.1917L54.0982 21.1482L54.1032 22.0413L55.2136 21.9493V21.9488Z" fill="#003786"/>
<path d="M30.1753 22.222C29.6068 22.6571 28.9158 22.654 28.3473 22.3383C27.8058 22.0375 27.5049 21.399 27.6212 20.6904C27.7173 20.1062 28.1906 19.6055 28.8956 19.4354C29.5943 19.267 30.2876 19.7084 30.6001 20.3015C30.9315 20.9311 30.7963 21.7465 30.1753 22.2216V22.222ZM29.8165 21.8597C30.1147 21.6122 30.2552 21.2189 30.2301 20.8754C30.209 20.5876 29.9984 20.2059 29.7092 20.0478C29.1879 19.7631 28.6226 19.9194 28.3145 20.3577C28.0424 20.7447 28.0262 21.3738 28.4313 21.7694C28.7326 22.0635 29.345 22.2508 29.8165 21.8592V21.8597Z" fill="#003786"/>
<path d="M76.0288 19.5238C76.9309 19.2113 77.7989 19.7277 78.0575 20.5889C78.2852 21.3478 77.8707 22.2328 77.0122 22.4887C76.2569 22.7142 75.3346 22.3653 75.053 21.5278C74.8029 20.7838 75.1307 19.835 76.0288 19.5238ZM77.5586 20.8695C77.5029 20.1623 76.9264 19.8485 76.3373 19.9576C75.8128 20.0546 75.4747 20.5305 75.5227 21.1385C75.5712 21.7469 76.0849 22.0967 76.6516 22.0613C77.2183 22.0258 77.6116 21.5453 77.5586 20.8695Z" fill="#003786"/>
<path d="M85.2258 21.2571L84.753 21.3029C84.6703 21.311 84.6623 20.9163 84.7337 20.8745L86.0287 20.8202C86.0475 21.1547 86.0489 21.5993 85.8962 21.8601C85.4045 22.7007 84.2765 22.7676 83.6093 22.2032C82.9012 21.6038 82.8096 20.5634 83.4988 19.8849C84.1019 19.2913 85.1777 19.201 85.8095 19.9841L85.4045 20.2683C84.964 19.8022 84.2846 19.8467 83.8657 20.2293C83.4467 20.6118 83.4988 21.3649 83.859 21.7506C84.2846 22.2064 85.211 22.1803 85.4377 21.6787L85.5617 21.4044C85.5913 21.3388 85.3125 21.2486 85.2258 21.2571Z" fill="#003786"/>
<path d="M92.2782 22.4033L91.7857 21.6413C91.6959 21.5025 91.5059 21.3826 91.3829 21.4055C91.2378 21.4325 91.1655 21.7306 91.1709 21.8891L91.1889 22.4114C91.1934 22.5389 90.752 22.5191 90.6631 22.4284L90.6537 19.4788L91.9743 19.4904C92.3698 19.494 92.778 19.9233 92.8292 20.2233C92.9127 20.7145 92.6981 21.1011 92.2095 21.344L92.8889 22.4765C92.7659 22.5048 92.3371 22.4953 92.2778 22.4037L92.2782 22.4033ZM92.0883 20.8752C92.2266 20.8613 92.3456 20.4545 92.3065 20.3319C92.2675 20.2093 92.078 19.9938 91.9455 19.9826L91.1867 19.9193L91.1934 20.9659L92.0883 20.8748V20.8752Z" fill="#003786"/>
<path d="M105.234 21.2817L104.763 21.2754C104.665 21.2741 104.703 20.8641 104.802 20.8614L106.014 20.8291C106.066 21.2763 106.09 21.6953 105.819 22.0626C105.37 22.6705 104.173 22.7527 103.548 22.125C103.179 21.7541 103.094 21.231 103.163 20.6908C103.242 20.0738 103.777 19.6059 104.247 19.4923C104.925 19.3284 105.483 19.5242 105.914 19.9984L105.487 20.2709C105.019 19.8291 104.377 19.8372 103.957 20.2296C103.541 20.618 103.556 21.2983 103.889 21.7033C104.284 22.1833 105.113 22.1874 105.453 21.6957C105.488 21.6445 105.555 21.4689 105.574 21.4142C105.598 21.3405 105.316 21.2826 105.234 21.2817Z" fill="#003786"/>
<path d="M115.9 22.4384L115.371 22.4838L115.361 21.2386L114.038 21.2323L114.022 22.4797L113.472 22.4856L113.483 19.4964L114.035 19.4775L114.02 20.729L115.368 20.7299L115.362 19.487L115.893 19.4991L115.9 22.4384Z" fill="#003786"/>
<path d="M99.9499 22.4472C99.2696 22.1877 98.9557 21.5186 99.015 20.8985C99.0779 20.2394 99.4964 19.6103 100.192 19.4801C100.918 19.3444 101.547 19.5878 101.911 20.1585C102.252 20.6924 102.222 21.4428 101.797 21.9955C101.433 22.471 100.662 22.7184 99.9499 22.4468V22.4472ZM100.429 22.057C101.021 22.1536 101.484 21.7212 101.577 21.2627C101.679 20.7629 101.494 20.2326 101.01 20.0247C100.396 19.7611 99.7397 20.1042 99.5826 20.6749C99.4155 21.282 99.7025 21.9389 100.429 22.0575V22.057Z" fill="#003786"/>
<path d="M73.3813 22.5055L72.741 21.5109C72.6844 21.4233 72.3018 21.3219 72.2875 21.4251L72.2224 21.8957L72.195 22.4081C72.1882 22.5369 71.7805 22.5019 71.6674 22.4368L71.6624 19.4804L72.9754 19.4795C73.4231 19.4795 73.8079 19.8621 73.868 20.2078C73.9574 20.7202 73.7675 21.1247 73.2304 21.3443L73.9323 22.4561L73.3817 22.5059L73.3813 22.5055ZM73.133 20.8908C73.2762 20.8805 73.4338 20.4772 73.3907 20.3416C73.3539 20.2253 73.1658 19.9936 73.04 19.9869L72.2197 19.9438L72.2039 20.9563L73.1334 20.8903L73.133 20.8908Z" fill="#003786"/>
<path d="M81.7606 22.4356C81.6214 22.6628 81.1459 22.3727 81.0323 22.2057L79.8181 20.4163L79.7885 22.4894L79.2699 22.4692L79.2806 19.4971C79.6668 19.3781 79.8918 19.6197 80.0566 19.864L81.2501 21.6358L81.2694 19.8554C81.2707 19.7463 81.3031 19.4518 81.3754 19.4711L81.7916 19.5838L81.7602 22.4356H81.7606Z" fill="#003786"/>
<path d="M59.7304 4.04286C59.0438 4.1623 58.5387 3.64322 58.4709 3.0743C58.4071 2.5404 58.7847 1.96475 59.3968 1.84396C59.9872 1.72766 60.4937 2.16861 60.6132 2.7052C60.7362 3.25885 60.4385 3.91937 59.7308 4.04286H59.7304Z" fill="#003786"/>
<path d="M121.682 21.9029L121.443 21.4791C121.383 21.3731 121.054 21.4063 120.917 21.4333L120.901 22.4894L120.396 22.4853L120.402 19.4813C120.926 19.4652 121.432 19.4472 121.903 19.5361C122.341 19.6187 122.56 20.0727 122.555 20.4234C122.549 20.8311 122.341 21.1131 121.923 21.378L122.647 22.4678C122.124 22.6474 121.918 22.3232 121.682 21.9034V21.9029ZM121.814 20.8832C121.951 20.8715 122.071 20.4854 122.034 20.3497C122.001 20.2334 121.816 20.0004 121.7 19.9932L120.9 19.9425L120.917 20.9582L121.814 20.8832Z" fill="#003786"/>
<path d="M38.2623 21.8234L36.8856 21.809L36.6584 22.3901C36.6085 22.5171 36.2161 22.5266 36.0688 22.4767L37.1321 19.7983C37.1797 19.6784 37.3382 19.4884 37.4455 19.4431C37.5744 19.3888 37.8874 19.5571 37.9386 19.6869L39.0324 22.4655C38.8968 22.5019 38.5452 22.5333 38.468 22.4417C38.3907 22.3501 38.3553 22.1894 38.2614 21.8229L38.2623 21.8234ZM38.0432 21.3506L37.5591 20.056L37.0903 21.3609L38.0427 21.3506H38.0432Z" fill="#003786"/>
<path d="M89.0861 21.1241L87.9294 21.1721L87.8787 22.0222L89.3075 22.0199L89.3093 22.5049L87.3524 22.5017L87.356 19.4784L89.2805 19.4631L89.3335 19.9755L87.8953 19.9508L87.8881 20.7554L89.0659 20.7366L89.0861 21.1241Z" fill="#003786"/>
<path d="M108.946 21.1417L107.784 21.2073L107.798 22.0088L109.061 22.0344C109.153 22.0362 109.229 22.3775 109.215 22.5095L107.229 22.4955L107.235 19.4781L108.977 19.4646C109.082 19.4682 109.185 19.8535 109.136 19.9549L107.785 19.9738L107.782 20.7205L108.864 20.7322C108.965 20.7331 109.05 21.1363 108.945 21.1422L108.946 21.1417Z" fill="#003786"/>
<path d="M32.5704 21.2126C32.6257 21.6145 32.9597 21.9333 33.2732 22.024C34.1717 22.2845 34.5489 21.2432 34.8286 21.9949C34.2812 22.6846 33.1259 22.7515 32.4905 22.1372C31.861 21.5283 31.874 20.4592 32.5085 19.8359C33.1528 19.2028 34.2049 19.2104 34.8439 19.9913L34.42 20.2764C34.0441 19.8898 33.5861 19.7915 33.1241 20.0146C32.7595 20.1907 32.4892 20.6231 32.57 21.2122L32.5704 21.2126Z" fill="#003786"/>
<path d="M119.003 21.1416L117.784 21.1568L117.711 22.0194L119.16 22.0113L119.156 22.5071L117.21 22.4963V19.477L119.123 19.4712L119.167 19.9714L117.735 19.9503L117.722 20.7217L118.838 20.7554C118.905 20.7572 118.965 20.9368 119.003 21.1416H119.003Z" fill="#003786"/>
<path d="M59.0016 22.2622C58.3779 22.7714 57.5557 22.6232 57.0766 21.9941L57.4309 21.6628C57.7021 21.8823 57.9114 22.0278 58.1054 22.079C58.2854 22.1266 58.7057 21.9573 58.7439 21.7588C58.8925 20.987 57.0066 21.3255 57.1691 20.15C57.2248 19.7476 57.6622 19.4446 58.0021 19.3965C58.4287 19.3359 58.9289 19.5142 59.1251 19.952C58.7389 20.3965 58.6047 19.8226 57.9325 19.8981C57.7915 19.9138 57.6352 20.3592 57.7497 20.4414C58.285 20.8262 59.0151 20.7629 59.2427 21.3498C59.3294 21.5734 59.2284 22.0772 59.0016 22.2622Z" fill="#003786"/>
<path d="M66.8012 22.3409C66.2287 22.7527 65.3194 22.5789 64.9764 22.0019C64.9728 21.865 65.2857 21.6831 65.3962 21.7702C65.5601 21.8991 65.8946 22.0612 66.0895 22.0895C66.2651 22.1146 66.6562 21.8735 66.6445 21.6925C66.6054 21.0958 65.3791 21.3041 65.1124 20.5695C65.0136 20.2979 65.1196 19.8771 65.35 19.6912C65.8915 19.2534 66.7042 19.3836 67.0778 19.9373C66.7918 20.46 65.8928 19.5193 65.6346 20.1133C65.3765 20.7074 66.371 20.6971 66.8838 21.0567C67.3585 21.3895 67.2157 22.0437 66.8012 22.3418V22.3409Z" fill="#003786"/>
<path d="M97.346 22.4461L96.7937 22.4744L96.7928 19.9639L95.9374 19.9491L95.9966 19.4727L98.1937 19.4807L98.2207 19.954L97.3383 19.9693L97.346 22.4461Z" fill="#003786"/>
<path d="M42.2236 22.0091L42.3345 22.5053L40.3382 22.4941L40.3449 19.4829L40.8896 19.4843L40.8694 22.0271L42.2236 22.0091Z" fill="#003786"/>
<path d="M45.7391 22.0513C45.722 21.9907 45.9721 21.7415 46.026 21.7734L46.3493 21.9651C46.4378 22.0176 46.6407 22.0827 46.7391 22.0967C46.8567 22.1133 47.123 21.895 47.1244 21.7603L47.1441 19.5121L47.6452 19.4712C47.6533 19.4707 47.7992 21.045 47.5895 21.9947C47.4979 22.4101 46.9753 22.5574 46.6619 22.5668C46.339 22.5767 45.815 22.3171 45.7391 22.0509V22.0513Z" fill="#003786"/>
<path d="M111.556 22.2978C111.556 22.3885 111.299 22.5731 111.224 22.5394C111.123 22.4949 111.023 22.2852 111.024 22.1514L111.036 19.9835L110.192 19.9404L110.204 19.4774L112.42 19.468V19.9655L111.56 19.975L111.556 22.2978H111.556Z" fill="#003786"/>
<path d="M69.592 22.4461L69.0818 22.4964L69.0805 19.9792L68.217 19.9563L68.2161 19.4673L70.4509 19.4718L70.4464 19.9464L69.5964 19.9657L69.592 22.4461Z" fill="#003786"/>
<path d="M26.4735 22.0282C26.5822 22.0681 26.513 22.501 26.4012 22.5032L24.5723 22.505L24.5746 19.4871L25.0999 19.4849L25.099 22.0093L26.4731 22.0282H26.4735Z" fill="#003786"/>
<path d="M60.8053 21.925C60.9019 21.8774 61.1906 21.9749 61.2261 22.0777C61.2687 22.2007 61.1803 22.5016 61.0613 22.5537C60.9418 22.6057 60.6814 22.4903 60.5947 22.3799C60.5144 22.2775 60.6644 21.9951 60.8058 21.925H60.8053Z" fill="#003786"/>
<path d="M123.899 21.9616C124.073 21.9113 124.326 21.9719 124.38 22.0613C124.446 22.169 124.328 22.5229 124.201 22.5251C124.096 22.5269 123.948 22.4887 123.805 22.4375C123.686 22.3953 123.765 21.9997 123.899 21.9611V21.9616Z" fill="#003786"/>
</svg>
