<svg width="20" height="20" viewBox="0 0 20 20" fill="none" xmlns="http://www.w3.org/2000/svg">
<g clip-path="url(#clip0_11_154)">
<path fill-rule="evenodd" clip-rule="evenodd" d="M9 2C7.14348 2 5.36301 2.7375 4.05025 4.05025C2.7375 5.36301 2 7.14348 2 9C2 10.8565 2.7375 12.637 4.05025 13.9497C5.36301 15.2625 7.14348 16 9 16C10.8565 16 12.637 15.2625 13.9497 13.9497C15.2625 12.637 16 10.8565 16 9C16 7.14348 15.2625 5.36301 13.9497 4.05025C12.637 2.7375 10.8565 2 9 2ZM3.3684e-08 9C0.000155699 7.56238 0.344701 6.1457 1.00479 4.86858C1.66489 3.59146 2.62132 2.49105 3.79402 1.65946C4.96672 0.827881 6.32158 0.289326 7.74516 0.0888828C9.16874 -0.111561 10.6196 0.0319404 11.9764 0.507373C13.3331 0.982806 14.5562 1.77633 15.5433 2.82153C16.5304 3.86673 17.2527 5.13318 17.6498 6.51487C18.0469 7.89656 18.1073 9.35327 17.8258 10.7631C17.5443 12.1729 16.9292 13.4947 16.032 14.618L19.707 18.293C19.8892 18.4816 19.99 18.7342 19.9877 18.9964C19.9854 19.2586 19.8802 19.5094 19.6948 19.6948C19.5094 19.8802 19.2586 19.9854 18.9964 19.9877C18.7342 19.99 18.4816 19.8892 18.293 19.707L14.618 16.032C13.2939 17.09 11.6979 17.7526 10.0138 17.9435C8.32966 18.1344 6.62586 17.8459 5.0985 17.1112C3.57113 16.3764 2.28228 15.2253 1.38029 13.7904C0.478308 12.3554 -0.000146577 10.6949 3.3684e-08 9Z" fill="#003786"/>
</g>
<defs>
<clipPath id="clip0_11_154">
<rect width="20" height="20" fill="white"/>
</clipPath>
</defs>
</svg>
