<svg width="24" height="24" viewBox="0 0 24 24" fill="none" xmlns="http://www.w3.org/2000/svg">
<path fill-rule="evenodd" clip-rule="evenodd" d="M6.61497 3.41397C8.03814 2.37691 9.70992 1.73405 11.4613 1.55039C13.2126 1.36673 14.9814 1.64879 16.5887 2.36805C18.1961 3.0873 19.585 4.21824 20.615 5.6465C21.645 7.07476 22.2797 8.74969 22.4547 10.5019C22.6297 12.2541 22.339 14.0215 21.6118 15.6253C20.8846 17.2291 19.7469 18.6124 18.3135 19.6354C16.8802 20.6584 15.2022 21.2847 13.4491 21.4511C11.6961 21.6175 9.93016 21.318 8.32997 20.583L2.81697 22.45C2.64029 22.5098 2.45039 22.5191 2.26873 22.4767C2.08707 22.4342 1.92089 22.3419 1.78899 22.21C1.65708 22.0781 1.5647 21.9119 1.52228 21.7302C1.47987 21.5486 1.48912 21.3587 1.54897 21.182L3.41697 15.671C2.45301 13.5728 2.24482 11.2057 2.82775 8.97154C3.41068 6.73734 4.74881 4.7737 6.61497 3.41397ZM13.126 3.51997C11.7068 3.40923 10.2837 3.67919 9.00362 4.30199C7.72355 4.92479 6.63285 5.87787 5.84406 7.06289C5.05528 8.2479 4.59697 9.62193 4.51645 11.0432C4.43592 12.4644 4.73609 13.8814 5.38597 15.148C5.44698 15.2671 5.48346 15.3972 5.49325 15.5307C5.50305 15.6642 5.48595 15.7982 5.44297 15.925L4.09297 19.907L8.07497 18.557C8.20186 18.5139 8.33611 18.4967 8.46976 18.5065C8.60341 18.5163 8.73373 18.5528 8.85297 18.614C9.90653 19.1544 11.0669 19.4542 12.2504 19.4917C13.4339 19.5293 14.6109 19.3037 15.6966 18.8312C16.7823 18.3587 17.7496 17.651 18.5287 16.7594C19.3077 15.8677 19.8791 14.8142 20.2017 13.6749C20.5242 12.5356 20.5898 11.3389 20.3937 10.1712C20.1977 9.00343 19.7449 7.89378 19.0679 6.92228C18.391 5.95079 17.5069 5.14166 16.4794 4.5533C15.4518 3.96494 14.3065 3.612 13.126 3.51997Z" fill="#003786"/>
</svg>
