<svg width="15" height="17" viewBox="0 0 15 17" fill="none" xmlns="http://www.w3.org/2000/svg">
<path d="M2.50833 1.38902e-05C2.94828 0.00151264 3.38004 0.119082 3.76 0.340847L13.755 6.17085C14.1216 6.38339 14.4281 6.68561 14.6458 7.04914C14.8635 7.41268 14.9853 7.82558 14.9996 8.24907C15.0139 8.67257 14.9204 9.09276 14.7278 9.47017C14.5351 9.84759 14.2497 10.1698 13.8983 10.4067L13.76 10.4933L3.76 16.3267C3.37998 16.5478 2.94839 16.6649 2.50871 16.6662C2.06902 16.6674 1.63678 16.5527 1.25552 16.3337C0.87427 16.1147 0.557474 15.7991 0.337055 15.4186C0.116635 15.0382 0.000379438 14.6064 0 14.1667V2.50001C-1.82778e-06 2.17101 0.0649377 1.84523 0.191095 1.54138C0.317253 1.23752 0.502147 0.96155 0.735177 0.729294C0.968207 0.497039 1.24479 0.313064 1.54907 0.187918C1.85334 0.0627723 2.17933 -0.0010828 2.50833 1.38902e-05ZM1.66667 14.1667C1.66648 14.3134 1.70502 14.4575 1.77839 14.5846C1.85176 14.7116 1.95737 14.817 2.08453 14.8901C2.2117 14.9633 2.35592 15.0016 2.50262 15.0011C2.64932 15.0006 2.7933 14.9615 2.92 14.8875L12.92 9.05418C13.046 8.9808 13.1506 8.87479 13.2233 8.74832C13.2959 8.62186 13.3341 8.47854 13.3341 8.33269C13.334 8.18684 13.2956 8.04357 13.2228 7.91719C13.15 7.79081 13.0453 7.68575 12.9192 7.61251H12.9167L2.92 1.77918C2.82529 1.72381 2.72057 1.68768 2.61186 1.67287C2.50315 1.65807 2.39259 1.66487 2.28651 1.6929C2.18044 1.72093 2.08095 1.76963 1.99374 1.8362C1.90653 1.90278 1.83333 1.98591 1.77833 2.08085C1.70476 2.20826 1.66623 2.35288 1.66667 2.50001V14.1667Z" fill="#003786"/>
</svg>
