<svg width="1184" height="196" viewBox="0 0 1184 196" fill="none" xmlns="http://www.w3.org/2000/svg">
<path d="M171.639 102.882L152.081 103.225L129.989 67.9323L113.823 68.093L113.791 103.166L96.7888 103.145V9.01758L116.42 9.05044L136.146 9.11982C142.547 9.14173 148.824 11.3436 154.404 14.17C163.149 19.892 167.816 29.2401 167.513 39.753C167.162 51.9968 159.91 62.4805 147.444 65.8728L171.639 102.882ZM137.106 53.4391C143.529 53.3552 148.55 48.5862 149.905 43.1855C152.242 33.8849 146.323 24.3871 136.489 24.2739L113.809 24.011L113.82 53.7495L137.106 53.4428V53.4391Z" fill="#003786"/>
<path d="M395.047 53.5264C394.43 68.8083 402.076 81.7605 415.405 86.869C428.941 92.0579 444.037 88.3114 453.177 75.9727L465.698 86.3651C448.43 108.848 415.905 112.112 394.046 93.2118C370.946 73.2377 371.775 35.5861 395.562 16.0903C410.391 3.93781 430.946 2.19235 448.028 9.93007C455.225 13.1873 460.126 18.3032 465.749 24.1859L453.001 34.9946C446.735 26.4426 437.639 22.0899 427.29 22.0132C409.394 21.8817 395.785 35.3123 395.047 53.53V53.5264Z" fill="#003786"/>
<path d="M583.892 115.257C578.455 128.922 565.379 134.804 552.463 128.903L556.403 116.305C560.734 117.909 567.044 117.686 569.038 112.669L572.799 103.185L547.687 41.7656C554.227 42.5799 558.514 42.5142 564.302 41.8423L580.964 86.1361L596.925 42.087L612.992 42.1271L583.889 115.261L583.892 115.257Z" fill="#003786"/>
<path d="M323.173 87.1852C331.389 94.0027 343.256 92.5567 349.731 83.9682L359.919 91.9761C353.751 101.054 342.749 105.012 331.747 104.373C315.158 103.413 303.542 90.7017 302.717 74.6895C301.72 55.2667 315.515 39.8168 335.285 40.7918C354.682 41.7485 364.662 57.7826 362.347 77.0301L354.653 76.7818L318.097 76.9644C318.473 80.8643 320.062 84.6072 323.169 87.1852H323.173ZM347.85 66.1411C346.915 57.6 341.617 54.383 335.179 53.3386C327.007 52.7033 319.539 57.0633 318.261 66.1886L347.85 66.1411Z" fill="#003786"/>
<path d="M214.396 103.322C203.711 105.987 193.311 103.471 185.303 96.6392C177.73 90.1796 173.677 80.1669 174.688 69.5408C176.324 52.3016 190.196 40.1418 207.563 40.6056C226.599 41.1168 240.618 56.8953 238.379 75.8726C236.805 89.2301 227.91 99.9549 214.399 103.325L214.396 103.322ZM223.488 72.3196C223.594 61.5365 216.119 54.0654 206.245 54.2735C196.766 54.4743 189.945 61.993 189.685 71.8632C189.415 82.1169 196.163 90.395 206.165 90.5484C215.958 90.7017 223.382 83.1283 223.488 72.316V72.3196Z" fill="#003786"/>
<path d="M286.076 100.977C272.04 107.886 255.228 104.99 244.602 92.7645L254.03 84.0299C259.829 90.4421 267.738 93.7285 276.042 91.2381C278.061 90.632 280.11 88.2256 280.449 86.3961C280.789 84.5667 278.919 80.8749 276.889 80.2688L261.216 75.5911C254.172 73.4878 248.943 68.8758 247.954 62.124C246.913 55.0253 249.882 47.7404 256.823 44.1071C268.83 37.8227 284.225 40.1232 294.566 49.5553L285.251 58.8266C279.726 53.7546 273.135 51.1547 266.142 53.6852C264.298 54.3534 262.337 56.4714 262.096 58.1328C261.833 59.9586 263.86 62.8836 265.879 63.4678L282.458 68.2477C292.876 71.253 297.922 81.2985 294.073 91.3513C292.635 95.1125 290.312 98.8919 286.076 100.977Z" fill="#003786"/>
<path d="M541.143 89.846L542.279 102.481C537.24 103.85 533.749 104.259 529.005 104.211C519.818 104.12 511.803 97.697 511.737 88.0787L511.514 54.6739L501.87 54.1919L501.794 41.835L511.492 41.9153L511.277 23.734L526.771 23.5332L526.807 41.981L541.505 41.7984L541.655 54.3563L526.745 54.4402L526.807 82.6232C526.811 84.4599 527.917 88.2941 529.484 89.2691C532.595 91.2044 536.188 91.0328 541.143 89.8497V89.846Z" fill="#003786"/>
<path d="M643.34 54.4782C643.041 65.7945 646.842 76.4827 655.369 82.9022C669.336 93.4151 688.678 91.3081 699.034 76.4754L711.614 86.4734C696.646 106.637 669.015 110.431 648.88 97.9905C636.537 90.366 627.649 77.0669 626.233 61.2592C623.771 33.865 642.621 9.5162 670.106 7.40924C686.162 6.175 700.725 11.6305 710.887 24.8164L699.472 35.8442C692.341 26.5399 682.566 22.724 670.899 23.6442C655.325 24.8675 643.771 38.0716 643.34 54.4855V54.4782Z" fill="#CA0A29"/>
<path d="M935.088 77.0027C935.975 84.4519 942.015 89.7102 948.157 90.9335C955.726 92.4416 963.011 90.3383 967.419 83.6741L977.921 92.1422C965.443 107.749 940.766 109.155 927.321 93.3691C916.227 80.3439 917.688 59.4203 930.384 48.2683C941.989 38.0731 959.75 38.0037 970.782 48.0054C979.024 55.4802 981.068 66.3473 979.882 76.853L957.826 76.9515L945.597 76.6959L935.091 77.0027H935.088ZM965.6 66.4605C964.822 58.0984 958.465 53.0081 950.297 53.103C943.304 53.1834 936.486 58.6753 935.88 66.4569H965.6V66.4605Z" fill="#CA0A29"/>
<path d="M778.04 70.9791C778.84 88.2657 766.815 102.197 750.887 104.219C734.159 106.341 718.983 95.7442 715.58 79.155C711.651 60.0061 724.194 42.493 743.631 40.7877C761.812 39.192 777.175 52.2866 778.04 70.9791ZM763.036 74.1341C763.441 67.8971 761.765 62.5804 757.777 58.8923C754.301 55.6789 748.999 53.4113 743.788 54.4593C734.301 56.3691 729.251 65.2242 730.062 74.6124C730.843 83.6976 737.873 90.5991 746.589 90.6064C755.261 90.6173 762.415 83.7268 763.039 74.1341H763.036Z" fill="#CA0A29"/>
<path d="M802.046 65.5771L801.673 103.137L786.355 103.17L786.38 42.2435L801.22 41.5752L801.764 49.7657C808.575 40.4761 821.333 37.763 831.729 43.6274C838.266 47.3155 842.418 55.4074 842.439 63.0539L842.556 102.988L827.194 103.232L827.041 64.2844C827.015 57.9709 821.333 54.3339 815.783 54.1002C809.294 53.8263 802.122 57.843 802.046 65.5735V65.5771Z" fill="#CA0A29"/>
<path d="M870.075 64.8473L869.604 103.182L854.278 102.999L854.293 42.5872L869.425 42.0505L869.629 50.0292C874.165 43.5367 880.296 40.5204 888.205 40.5971C899.43 40.703 909.439 48.4627 909.764 60.3741L910.542 88.8456L909.757 103.16L895.044 103.142L894.833 64.9751C894.796 58.4059 888.661 54.2102 883.199 54.1263C877.539 54.0386 870.166 57.5807 870.075 64.8437V64.8473Z" fill="#CA0A29"/>
<path d="M1005.38 79.1876C1007.77 86.0124 1013.25 89.9707 1019.13 90.5696C1025.96 91.267 1031.78 88.4078 1035.39 82.222L1046.04 91.3145C1039.61 100.418 1030.19 104.665 1019.36 104.34C1001.92 103.818 988.503 89.4193 989.058 71.9355C989.493 58.1909 997.676 46.63 1009.73 42.584C1023.14 38.0816 1037.02 41.4995 1045.95 53.4694L1035.05 62.1529C1031.82 57.2269 1026.59 54.05 1020.9 54.2509C1014.82 54.4663 1009.46 57.687 1006.52 63.4492C1004.16 68.0685 1003.55 73.9731 1005.38 79.1839L1005.38 79.1876Z" fill="#CA0A29"/>
<path d="M1084.17 90.578L1091.79 90.421L1092.47 102.007C1089.22 103.483 1085.66 104.027 1081.93 104.268C1071.95 104.91 1062.67 98.2755 1062.58 87.6786L1062.3 54.5733L1052.42 54.0657V42.2273L1062.22 42.0739L1062.36 23.5859L1077.5 23.6298L1077.48 41.6467L1086.08 42.0739C1087.42 42.1397 1091.32 41.3144 1091.87 42.5961L1092.08 54.4199L1077.49 54.2556V83.4939C1077.49 87.1053 1079.96 90.6656 1084.16 90.578H1084.17Z" fill="#CA0A29"/>
<path d="M492.095 102.73L476.459 103.157L476.441 41.9056L492.026 41.6719L492.095 102.73Z" fill="#003786"/>
<path d="M172.713 171.936L99.4472 171.98C98.2824 172.053 96.2996 171.235 96.0914 170.38C95.8504 169.391 97.238 167.945 98.6585 167.561L173.454 167.543L174.955 169.69C175.393 170.315 173.443 171.746 172.713 171.939V171.936Z" fill="#CA0A29"/>
<path d="M1090.4 171.924L1028.34 171.979C1027.64 171.702 1026.24 170.836 1025.96 170.274C1025.61 169.569 1026.79 168.448 1027.8 167.59L1090.85 167.521L1092.99 169.682C1093.48 170.186 1091.35 171.756 1090.4 171.924H1090.4Z" fill="#CA0A29"/>
<path d="M409.401 157.967C416.54 156.408 423.219 161.816 424.566 168.071C426.067 175.042 421.375 182.108 414.185 183.309C407.784 184.379 400.849 180.381 399.17 173.658C397.556 167.188 401.525 159.687 409.401 157.967ZM408.558 162.66C403.321 164.734 402.533 170.368 404.139 174.275C406.078 178.982 410.997 180.268 415.043 178.807C419.885 177.061 421.298 171.792 419.794 167.253C418.388 163.01 413.455 160.717 408.558 162.66Z" fill="#003786"/>
<path d="M451.804 169.913C452.848 171.772 454.842 175.372 454.382 177.461C453.958 179.374 450.92 182.752 448.93 182.788L435.583 183.033L435.726 158.261L447.842 158.443C449.543 158.469 452.143 160.967 452.793 162.413C453.626 164.271 452.618 167.638 451.807 169.913H451.804ZM447.334 168.131C448.331 168.094 449.678 165.462 449.273 164.607C448.868 163.753 447.093 162.201 446.151 162.19L440.053 162.12L439.918 168.409L447.33 168.131H447.334ZM449.025 178.491C450.719 178.348 450.252 172.4 448.623 172.334L439.954 171.98L439.994 179.243L449.025 178.494V178.491Z" fill="#003786"/>
<path d="M245.409 180.713C240.786 184.251 235.166 184.226 230.543 181.659C226.139 179.212 223.693 174.019 224.638 168.257C225.42 163.507 229.269 159.435 235.001 158.051C240.683 156.682 246.321 160.271 248.863 165.095C251.558 170.215 250.459 176.846 245.409 180.709V180.713ZM242.491 177.766C244.916 175.754 246.059 172.555 245.854 169.762C245.682 167.421 243.97 164.317 241.618 163.032C237.379 160.717 232.781 161.988 230.276 165.551C228.063 168.699 227.932 173.815 231.226 177.032C233.676 179.424 238.657 180.947 242.491 177.762V177.766Z" fill="#003786"/>
<path d="M618.298 158.77C625.634 156.228 632.692 160.428 634.796 167.432C636.647 173.603 633.277 180.8 626.295 182.881C620.153 184.714 612.652 181.877 610.363 175.067C608.329 169.016 610.995 161.301 618.298 158.77ZM630.739 169.714C630.286 163.963 625.597 161.41 620.806 162.297C616.541 163.086 613.792 166.957 614.182 171.901C614.577 176.849 618.754 179.694 623.363 179.405C627.971 179.117 631.17 175.209 630.739 169.714Z" fill="#003786"/>
<path d="M693.09 172.866L689.245 173.239C688.573 173.305 688.507 170.095 689.088 169.755L699.619 169.313C699.772 172.034 699.783 175.649 698.541 177.77C694.543 184.606 685.37 185.15 679.944 180.56C674.185 175.685 673.44 167.225 679.046 161.707C683.95 156.88 692.699 156.146 697.837 162.514L694.543 164.826C690.961 161.035 685.436 161.397 682.029 164.508C678.622 167.619 679.046 173.743 681.974 176.879C685.436 180.586 692.969 180.374 694.813 176.295L695.821 174.064C696.062 173.531 693.794 172.797 693.09 172.866Z" fill="#003786"/>
<path d="M750.442 182.187L746.436 175.99C745.705 174.862 744.161 173.887 743.16 174.073C741.981 174.292 741.393 176.717 741.437 178.006L741.583 182.253C741.619 183.29 738.03 183.129 737.307 182.392L737.23 158.404L747.969 158.499C751.186 158.528 754.506 162.019 754.922 164.459C755.601 168.453 753.856 171.597 749.883 173.573L755.408 182.782C754.407 183.012 750.92 182.936 750.438 182.191L750.442 182.187ZM748.897 169.761C750.022 169.648 750.989 166.339 750.672 165.342C750.354 164.345 748.813 162.593 747.736 162.501L741.565 161.987L741.619 170.498L748.897 169.757V169.761Z" fill="#003786"/>
<path d="M855.801 173.066L851.974 173.015C851.174 173.004 851.484 169.67 852.284 169.648L862.147 169.385C862.563 173.022 862.764 176.429 860.555 179.416C856.903 184.36 847.176 185.029 842.093 179.924C839.091 176.907 838.397 172.653 838.96 168.261C839.599 163.243 843.951 159.438 847.771 158.514C853.288 157.182 857.827 158.774 861.329 162.63L857.857 164.846C854.055 161.253 848.83 161.319 845.412 164.51C842.031 167.669 842.155 173.201 844.864 176.495C848.074 180.398 854.818 180.431 857.579 176.433C857.867 176.016 858.412 174.589 858.561 174.143C858.762 173.544 856.469 173.073 855.801 173.066Z" fill="#003786"/>
<path d="M942.541 182.472L938.235 182.841L938.159 172.715L927.397 172.664L927.262 182.808L922.796 182.856L922.88 158.547L927.368 158.394L927.248 168.571L938.213 168.578L938.166 158.47L942.478 158.569L942.541 182.472Z" fill="#003786"/>
<path d="M812.829 182.545C807.297 180.435 804.744 174.994 805.226 169.951C805.737 164.59 809.141 159.475 814.801 158.416C820.702 157.313 825.817 159.292 828.779 163.933C831.55 168.275 831.302 174.377 827.851 178.872C824.886 182.739 818.624 184.751 812.829 182.542V182.545ZM816.725 179.372C821.541 180.157 825.303 176.641 826.062 172.912C826.891 168.848 825.383 164.536 821.45 162.845C816.458 160.701 811.12 163.491 809.842 168.132C808.483 173.069 810.817 178.412 816.725 179.376V179.372Z" fill="#003786"/>
<path d="M596.768 183.018L591.561 174.93C591.101 174.218 587.99 173.393 587.873 174.232L587.343 178.059L587.12 182.226C587.066 183.274 583.75 182.989 582.83 182.46L582.79 158.417L593.467 158.41C597.108 158.41 600.237 161.521 600.726 164.333C601.453 168.499 599.908 171.79 595.541 173.575L601.248 182.617L596.772 183.022L596.768 183.018ZM594.749 169.887C595.913 169.803 597.195 166.524 596.845 165.421C596.545 164.475 595.015 162.591 593.993 162.536L587.321 162.186L587.193 170.42L594.752 169.883L594.749 169.887Z" fill="#003786"/>
<path d="M664.91 182.45C663.778 184.298 659.911 181.939 658.987 180.581L649.114 166.029L648.873 182.889L644.655 182.724L644.743 158.554C647.883 157.587 649.712 159.551 651.052 161.538L660.758 175.947L660.915 161.468C660.926 160.581 661.189 158.186 661.777 158.343L665.162 159.259L664.907 182.45H664.91Z" fill="#003786"/>
<path d="M485.756 32.8772C480.173 33.8485 476.065 29.6273 475.513 25.0007C474.995 20.659 478.066 15.9777 483.043 14.9954C487.845 14.0496 491.964 17.6355 492.935 21.9991C493.935 26.5015 491.514 31.873 485.76 32.8772H485.756Z" fill="#003786"/>
<path d="M989.555 178.118L987.616 174.671C987.13 173.809 984.453 174.079 983.336 174.298L983.205 182.887L979.104 182.854L979.148 158.425C983.413 158.293 987.528 158.147 991.359 158.87C994.915 159.542 996.697 163.234 996.657 166.086C996.61 169.401 994.919 171.694 991.519 173.849L997.402 182.711C993.155 184.172 991.476 181.536 989.555 178.121V178.118ZM990.632 169.825C991.749 169.73 992.724 166.59 992.418 165.487C992.155 164.541 990.65 162.646 989.708 162.587L983.201 162.175L983.34 170.435L990.632 169.825Z" fill="#003786"/>
<path d="M311.174 177.471L299.978 177.354L298.13 182.079C297.725 183.112 294.533 183.189 293.336 182.784L301.983 161.002C302.37 160.027 303.659 158.482 304.531 158.114C305.579 157.672 308.125 159.041 308.541 160.096L317.436 182.692C316.333 182.988 313.474 183.244 312.846 182.499C312.218 181.754 311.929 180.447 311.166 177.467L311.174 177.471ZM309.392 173.625L305.455 163.098L301.643 173.709L309.388 173.625H309.392Z" fill="#003786"/>
<path d="M724.482 171.785L715.076 172.175L714.663 179.088L726.283 179.069L726.297 183.013L710.384 182.988L710.413 158.402L726.063 158.277L726.494 162.444L714.798 162.243L714.74 168.787L724.318 168.633L724.482 171.785Z" fill="#003786"/>
<path d="M885.985 171.927L876.534 172.46L876.655 178.978L886.92 179.186C887.668 179.201 888.289 181.976 888.172 183.05L872.025 182.936L872.076 158.398L886.24 158.288C887.095 158.317 887.927 161.45 887.533 162.276L876.549 162.429L876.523 168.502L885.32 168.597C886.138 168.604 886.835 171.883 885.981 171.93L885.985 171.927Z" fill="#003786"/>
<path d="M264.886 172.504C265.335 175.772 268.052 178.365 270.601 179.102C277.908 181.22 280.975 172.752 283.25 178.865C278.799 184.474 269.403 185.018 264.236 180.022C259.117 175.071 259.222 166.376 264.382 161.308C269.622 156.159 278.178 156.221 283.374 162.571L279.927 164.89C276.871 161.746 273.146 160.946 269.389 162.761C266.423 164.193 264.225 167.709 264.882 172.5L264.886 172.504Z" fill="#003786"/>
<path d="M967.769 171.928L957.863 172.052L957.264 179.067L969.047 179.001L969.015 183.032L953.189 182.944V158.391L968.752 158.344L969.102 162.412L957.465 162.24L957.351 168.513L966.433 168.787C966.973 168.802 967.463 170.263 967.773 171.928H967.769Z" fill="#003786"/>
<path d="M479.83 181.039C474.757 185.179 468.071 183.974 464.175 178.859L467.056 176.164C469.262 177.949 470.963 179.132 472.541 179.549C474.005 179.936 477.423 178.559 477.733 176.945C478.942 170.668 463.606 173.421 464.927 163.861C465.38 160.59 468.937 158.125 471.701 157.734C475.17 157.241 479.238 158.691 480.834 162.251C477.693 165.866 476.602 161.199 471.135 161.813C469.988 161.941 468.718 165.563 469.649 166.231C474.002 169.361 479.939 168.846 481.79 173.619C482.495 175.437 481.674 179.534 479.83 181.039Z" fill="#003786"/>
<path d="M543.257 181.68C538.602 185.028 531.207 183.615 528.417 178.923C528.388 177.809 530.933 176.33 531.832 177.039C533.164 178.087 535.885 179.405 537.47 179.635C538.897 179.839 542.078 177.879 541.983 176.407C541.665 171.554 531.693 173.248 529.524 167.274C528.72 165.065 529.582 161.644 531.455 160.132C535.859 156.572 542.469 157.631 545.507 162.133C543.181 166.383 535.87 158.733 533.771 163.564C531.671 168.395 539.759 168.311 543.929 171.236C547.789 173.942 546.628 179.263 543.257 181.687V181.68Z" fill="#003786"/>
<path d="M791.653 182.535L787.162 182.765L787.154 162.349L780.198 162.229L780.68 158.354L798.547 158.42L798.766 162.269L791.591 162.393L791.653 182.535Z" fill="#003786"/>
<path d="M343.388 178.981L344.29 183.016L328.055 182.925L328.11 158.438L332.539 158.448L332.375 179.127L343.388 178.981Z" fill="#003786"/>
<path d="M371.976 179.326C371.837 178.833 373.871 176.806 374.31 177.065L376.939 178.625C377.658 179.052 379.309 179.581 380.108 179.695C381.065 179.83 383.23 178.055 383.241 176.96L383.402 158.676L387.477 158.344C387.543 158.34 388.73 171.143 387.024 178.866C386.28 182.243 382.029 183.441 379.48 183.518C376.855 183.598 372.593 181.488 371.976 179.322V179.326Z" fill="#003786"/>
<path d="M907.215 181.329C907.215 182.066 905.123 183.567 904.509 183.293C903.691 182.932 902.877 181.226 902.884 180.138L902.987 162.508L896.122 162.158L896.217 158.393L914.237 158.316V162.362L907.241 162.439L907.211 181.329H907.215Z" fill="#003786"/>
<path d="M565.952 182.535L561.804 182.944L561.793 162.473L554.771 162.287L554.764 158.311L572.938 158.347L572.901 162.207L565.989 162.364L565.952 182.535Z" fill="#003786"/>
<path d="M215.305 179.137C216.188 179.462 215.626 182.982 214.717 183L199.844 183.015L199.862 158.472L204.135 158.454L204.127 178.983L215.301 179.137H215.305Z" fill="#003786"/>
<path d="M494.498 178.298C495.283 177.911 497.631 178.704 497.919 179.54C498.266 180.54 497.547 182.987 496.579 183.41C495.608 183.834 493.49 182.896 492.785 181.997C492.132 181.165 493.351 178.868 494.502 178.298H494.498Z" fill="#003786"/>
<path d="M1007.59 178.594C1009 178.185 1011.06 178.678 1011.5 179.405C1012.03 180.281 1011.08 183.159 1010.05 183.177C1009.19 183.192 1007.98 182.881 1006.82 182.465C1005.86 182.122 1006.5 178.905 1007.59 178.591V178.594Z" fill="#003786"/>
</svg>
