<svg width="293" height="84" viewBox="0 0 293 84" fill="none" xmlns="http://www.w3.org/2000/svg">
<path d="M161.14 0.688477C168.082 0.688483 185.268 1.3074 197.252 12.5654L197.818 13.1094C203.116 18.3634 208.949 27.5611 208.949 42.7246C208.949 51.2619 207.327 62.1598 198.319 71.0918L198.313 71.0977C193.379 76.1139 183.722 82.6357 168.698 82.6357H129.454V0.688477H161.14ZM251.489 0.688477C260.263 0.688487 269.219 1.689 276.701 9.10938C280.862 13.2358 284.434 19.4346 284.434 29.1064C284.434 36.322 282.22 40.7862 279.934 43.5322H279.933L279.927 43.541C277.52 46.5237 273.511 48.9478 268.735 49.9199L268.185 50.0312V51.7559L268.549 51.9502C270.12 52.7891 271.652 53.9684 272.703 55.5898L272.71 55.5996L290.885 82.6357H257.459L245.555 58.6572C245.361 58.214 245.143 57.8394 244.986 57.5293C244.816 57.1917 244.644 56.7971 244.469 56.1582L244.248 55.3535L243.5 55.7236L242.996 55.9727L242.612 56.1621V82.6357H214.261V0.688477H251.489ZM98.3379 0.688477V57.1543H124.035V82.6357H69.2295V0.688477H98.3379ZM63.5547 0.688477V26.3887L47.1436 25.6719L46.4248 25.6406V82.6357H17.8193V25.6406L17.1006 25.6719L0.688477 26.3887V0.688477H63.5547ZM158.31 58.5273H161.267C164.794 58.5273 170.199 58.4147 174.693 54.4854C177.76 51.8379 179.841 47.3909 179.841 41.9736C179.841 36.4258 177.631 31.7431 174.714 28.9824L174.708 28.9766L174.344 28.6523C170.551 25.387 165.746 24.7969 162.272 24.7969H158.31V58.5273ZM242.612 37.79H246.828C248.61 37.79 251.608 37.5491 253.7 35.751L253.703 35.749C254.843 34.7601 256.083 32.9527 256.083 30.1064C256.083 28.2555 255.619 26.3241 254.498 24.9199L254.266 24.6465C253.156 23.4096 251.342 22.1719 248.592 22.1719H242.612V37.79Z" fill="#003786" stroke="#003786" stroke-width="1.37705"/>
</svg>
